<?xml version="1.0" standalone="no"?>
<svg xmlns="http://www.w3.org/2000/svg" xmlns:xlink="http://www.w3.org/1999/xlink" version="1.1" class="two-level-treemap-chart" width="600" height="510" style="background-color: transparent; font-size: 14px; font-family: &quot;阿里巴巴普惠体 常规&quot;; letter-spacing: 0px; user-select: none;" totalHeight="27"><defs/><g class="svg-group" opacity="1" transform="translate(16.02,15.963000000000001)"><g class="main-group" transform="translate(0,47.090730590820314)"><g class="two-level-treemap"><g clip-path="url(#clip-overlay-cq6eh71ig122o9l)" style="opacity: 1;"><g class="children-group"><g class="child-node"><path stroke="#FFFFFF" stroke-width="1" fill="#E65A56" d="&#10;    M0 0&#10;    A0 0 0 0 1 0 0&#10;    H313.96000000000004&#10;    A0 0 0 0 1 313.96000000000004 0&#10;    V181.06235678100583&#10;    A0 0 0 0 1 313.96000000000004 181.06235678100583&#10;    H0&#10;    A0 0 0 0 1 0 181.06235678100583&#10;    Z&#10;  " style="fill-opacity: 1;"/></g><g class="child-node"><path stroke="#FFFFFF" stroke-width="1" fill="#E65A56" d="&#10;    M0 182.06235678100583&#10;    A0 0 0 0 1 0 182.06235678100583&#10;    H313.96000000000004&#10;    A0 0 0 0 1 313.96000000000004 182.06235678100583&#10;    V272.09353517150873&#10;    A0 0 0 0 1 313.96000000000004 272.09353517150873&#10;    H0&#10;    A0 0 0 0 1 0 272.09353517150873&#10;    Z&#10;  " style="fill-opacity: 1;"/></g><g class="child-node"><path stroke="#FFFFFF" stroke-width="1" fill="#E65A56" d="&#10;    M314.96000000000004 0&#10;    A0 0 0 0 1 314.96000000000004 0&#10;    H471.44000000000005&#10;    A0 0 0 0 1 471.44000000000005 0&#10;    V272.09353517150873&#10;    A0 0 0 0 1 471.44000000000005 272.09353517150873&#10;    H314.96000000000004&#10;    A0 0 0 0 1 314.96000000000004 272.09353517150873&#10;    Z&#10;  " style="fill-opacity: 1; opacity: 1;"/></g><g class="child-node"><path stroke="#FFFFFF" stroke-width="1" fill="#62D9AD" d="&#10;    M0 273.09353517150873&#10;    A0 0 0 0 1 0 273.09353517150873&#10;    H345.4560000000001&#10;    A0 0 0 0 1 345.4560000000001 273.09353517150873&#10;    V402.1380757293701&#10;    A0 0 0 0 1 345.4560000000001 402.1380757293701&#10;    H0&#10;    A0 0 0 0 1 0 402.1380757293701&#10;    Z&#10;  " style="fill-opacity: 1;"/></g><g class="child-node"><path stroke="#FFFFFF" stroke-width="1" fill="#62D9AD" d="&#10;    M346.4560000000001 273.09353517150873&#10;    A0 0 0 0 1 346.4560000000001 273.09353517150873&#10;    H471.44000000000005&#10;    A0 0 0 0 1 471.44000000000005 273.09353517150873&#10;    V402.1380757293701&#10;    A0 0 0 0 1 471.44000000000005 402.1380757293701&#10;    H346.4560000000001&#10;    A0 0 0 0 1 346.4560000000001 402.1380757293701&#10;    Z&#10;  " style="fill-opacity: 1;"/></g><g class="child-node"><path stroke="#FFFFFF" stroke-width="1" fill="rgb(102,102,102)" d="&#10;    M472.44000000000005 0&#10;    A0 0 0 0 1 472.44000000000005 0&#10;    H567.96&#10;    A0 0 0 0 1 567.96 0&#10;    V204.10533677459182&#10;    A0 0 0 0 1 567.96 204.10533677459182&#10;    H472.44000000000005&#10;    A0 0 0 0 1 472.44000000000005 204.10533677459182&#10;    Z&#10;  " style="fill-opacity: 1; opacity: 1;"/></g><g class="child-node"><path stroke="#FFFFFF" stroke-width="1" fill="rgb(102,102,102)" d="&#10;    M472.44000000000005 205.10533677459182&#10;    A0 0 0 0 1 472.44000000000005 205.10533677459182&#10;    H567.96&#10;    A0 0 0 0 1 567.96 205.10533677459182&#10;    V402.1380757293701&#10;    A0 0 0 0 1 567.96 402.1380757293701&#10;    H472.44000000000005&#10;    A0 0 0 0 1 472.44000000000005 402.1380757293701&#10;    Z&#10;  " style="fill-opacity: 1; opacity: 1;"/></g></g><g class="parent-group" style="display: block;"><g class="parent-node"><path fill="#E65A56" stroke="#FFFFFF" stroke-width="1" d="&#10;    M0 0&#10;    A0 0 0 0 1 0 0&#10;    H471.44000000000005&#10;    A0 0 0 0 1 471.44000000000005 0&#10;    V272.09353517150873&#10;    A0 0 0 0 1 471.44000000000005 272.09353517150873&#10;    H0&#10;    A0 0 0 0 1 0 272.09353517150873&#10;    Z&#10;  " style="fill-opacity: 0.7; opacity: 1;"/><g class="two-level-treemap-texts" transform="translate(6,6)" fill="#333333" text-anchor="start" style="font-size: 14px; font-family: OPPOSans-M; opacity: 1;"><text class="two-level-treemap-name" dy="0.75em" style="display: block;">积极</text><text class="two-level-treemap-percent" dy="2em" style="display: none;">56.25%</text><text class="two-level-treemap-value" dy="2em" style="display: block;">189</text></g></g><g class="parent-node"><path fill="#62D9AD" stroke="#FFFFFF" stroke-width="1" d="&#10;    M0 273.09353517150873&#10;    A0 0 0 0 1 0 273.09353517150873&#10;    H471.44000000000005&#10;    A0 0 0 0 1 471.44000000000005 273.09353517150873&#10;    V402.1380757293701&#10;    A0 0 0 0 1 471.44000000000005 402.1380757293701&#10;    H0&#10;    A0 0 0 0 1 0 402.1380757293701&#10;    Z&#10;  " style="fill-opacity: 0.7;"/><g class="two-level-treemap-texts" transform="translate(6,279.09353517150873)" fill="#333333" text-anchor="start" style="font-size: 14px; font-family: OPPOSans-M; opacity: 1;"><text class="two-level-treemap-name" dy="0.75em" style="display: block;">中性</text><text class="two-level-treemap-percent" dy="2em" style="display: none;">26.79%</text><text class="two-level-treemap-value" dy="2em" style="display: block;">90</text></g></g><g class="parent-node"><path fill="rgba(102, 102, 102, 1.00)" stroke="#FFFFFF" stroke-width="1" d="&#10;    M472.44000000000005 0&#10;    A0 0 0 0 1 472.44000000000005 0&#10;    H567.96&#10;    A0 0 0 0 1 567.96 0&#10;    V402.1380757293701&#10;    A0 0 0 0 1 567.96 402.1380757293701&#10;    H472.44000000000005&#10;    A0 0 0 0 1 472.44000000000005 402.1380757293701&#10;    Z&#10;  " style="fill-opacity: 0.7; opacity: 1;"/><g class="two-level-treemap-texts" transform="translate(478.44000000000005,6)" fill="#333333" text-anchor="start" style="font-size: 14px; font-family: OPPOSans-M; opacity: 1;"><text class="two-level-treemap-name" dy="0.75em" style="display: block;">消极</text><text class="two-level-treemap-percent" dy="2em" style="display: none;">16.96%</text><text class="two-level-treemap-value" dy="2em" style="display: block;">57</text></g></g></g></g><defs><clipPath id="clip-overlay-cq6eh71ig122o9l"><rect x="-0.5" y="-0.5" width="568.96" height="403.1380757293701"/></clipPath></defs></g></g><g class="unit-group"><text transform="translate(0,47.090730590820314)" style="display: none;"/></g><g class="source-group"><text transform="translate(0,478.73699999999997)" style="display: none;"/></g><g class="publish-logo-group" transform="translate(0,478.73699999999997)" style="display: none;"/><g class="legend preview-hidden" transform="translate(0,462.3248063201904)" style="display: block;"><g transform="translate(195.3766293334961,0)"><g class="legend-group"><g class="legend-item" transform="translate(0,0)" style="opacity: 1;"><circle cx="6" cy="6" r="6" class="legend-shape" fill="#E65A56"/><text x="18" y="10.899999999999999" fill="#545454" style="text-anchor: start; font-size: 14px; font-family: &quot;阿里巴巴普惠体 常规&quot;;">积极</text></g><g class="legend-item" transform="translate(65.5625,0)" style="opacity: 1;"><circle cx="6" cy="6" r="6" class="legend-shape" fill="#62D9AD"/><text x="18" y="10.899999999999999" fill="#545454" style="text-anchor: start; font-size: 14px; font-family: &quot;阿里巴巴普惠体 常规&quot;;">中性</text></g><g class="legend-item" transform="translate(131.125,0)" style="opacity: 1;"><circle cx="6" cy="6" r="6" class="legend-shape" fill="rgba(102, 102, 102, 1.00)"/><text x="18" y="10.899999999999999" fill="#545454" style="text-anchor: start; font-size: 14px; font-family: &quot;阿里巴巴普惠体 常规&quot;;">消极</text></g></g></g></g><text class="title-text" y="24" fill="#4c4c4c" style="font-size: 24px; font-family: &quot;阿里巴巴普惠体 常规&quot;; text-anchor: start; letter-spacing: 0px; display: block;" transform="translate(0,0)"><tspan x="0" y="24">“琼瑶式”评价</tspan></text></g></svg>